# xmcd
#
# Track frame offsets:
#	150
#	15186
#	23074
#	37612
#	45941
#	57296
#	70750
#	80316
#	91724
#	108153
#	118959
#	132685
#	142987
#	151297
#	160403
#	171938
#
# Disc length: 2426 seconds
#
# Revision: 1
# Processed by: cddbd v1.4PL0 Copyright (c) Steve Scherf et al.
# Submitted via: audiograbber 1.81.02
#
DISCID=bb097810
DTITLE=Hoyt Axton - Della And The Dealer
DYEAR=1999
DGENRE=
TTITLE0=Della And The Dealer
TTITLE1=I Love To Sing
TTITLE2=Evangelina
TTITLE3=Big Red
TTITLE4=Double Double Dare
TTITLE5=Joy To The World
TTITLE6=Never Gonna Work
TTITLE7=South Bound
TTITLE8=Nashville
TTITLE9=Red, White And Blue
TTITLE10=Lion In The Winter
TTITLE11=Heartbreak Hotel
TTITLE12=Bony Fingers
TTITLE13=I'll Be There
TTITLE14=No No Song
TTITLE15=There's A Tiger In The Closet
EXTD=
EXTT0=
EXTT1=
EXTT2=
EXTT3=
EXTT4=
EXTT5=
EXTT6=
EXTT7=
EXTT8=
EXTT9=
EXTT10=
EXTT11=
EXTT12=
EXTT13=
EXTT14=
EXTT15=
PLAYORDER=
